<?xml version="1.0" encoding="utf-8" standalone="no"?>
<!DOCTYPE svg PUBLIC "-//W3C//DTD SVG 1.1//EN"
  "http://www.w3.org/Graphics/SVG/1.1/DTD/svg11.dtd">
<svg xmlns:xlink="http://www.w3.org/1999/xlink" width="864pt" height="432pt" viewBox="0 0 864 432" xmlns="http://www.w3.org/2000/svg" version="1.1">
 <metadata>
  <rdf:RDF xmlns:dc="http://purl.org/dc/elements/1.1/" xmlns:cc="http://creativecommons.org/ns#" xmlns:rdf="http://www.w3.org/1999/02/22-rdf-syntax-ns#">
   <cc:Work>
    <dc:type rdf:resource="http://purl.org/dc/dcmitype/StillImage"/>
    <dc:date>2026-07-10T10:23:59.099287</dc:date>
    <dc:format>image/svg+xml</dc:format>
    <dc:creator>
     <cc:Agent>
      <dc:title>Matplotlib v3.11.0, https://matplotlib.org/</dc:title>
     </cc:Agent>
    </dc:creator>
   </cc:Work>
  </rdf:RDF>
 </metadata>
 <defs>
  <style type="text/css">*{stroke-linejoin: round; stroke-linecap: butt}</style>
 </defs>
 <g id="figure_1">
  <g id="patch_1">
   <path d="M 0 432 
L 864 432 
L 864 0 
L 0 0 
z
" style="fill: #ffffff"/>
  </g>
  <g id="axes_1">
   <g id="patch_2">
    <path d="M 45.082344 390.2 
L 799.8 390.2 
L 799.8 26.16 
L 45.082344 26.16 
z
" style="fill: #ffffff"/>
   </g>
   <g id="FillBetweenPolyCollection_1"/>
   <g id="matplotlib.axis_1">
    <g id="xtick_1">
     <g id="line2d_1">
      <defs>
       <path id="m1f6d2efedc" d="M 0 0 
L 0 3.5 
" style="stroke: #000000; stroke-width: 0.8"/>
      </defs>
      <g>
       <use xlink:href="#m1f6d2efedc" x="79.387692" y="390.2" style="stroke: #000000; stroke-width: 0.8"/>
      </g>
     </g>
     <g id="text_1">
      <!-- 2000 -->
      <g transform="translate(66.662692 404.797656) scale(0.1 -0.1)">
       <defs>
        <path id="DejaVuSans-15" d="M 1228 531 
L 3431 531 
L 3431 0 
L 469 0 
L 469 531 
Q 828 903 1448 1529 
Q 2069 2156 2228 2338 
Q 2531 2678 2651 2914 
Q 2772 3150 2772 3378 
Q 2772 3750 2511 3984 
Q 2250 4219 1831 4219 
Q 1534 4219 1204 4116 
Q 875 4013 500 3803 
L 500 4441 
Q 881 4594 1212 4672 
Q 1544 4750 1819 4750 
Q 2544 4750 2975 4387 
Q 3406 4025 3406 3419 
Q 3406 3131 3298 2873 
Q 3191 2616 2906 2266 
Q 2828 2175 2409 1742 
Q 1991 1309 1228 531 
z
" transform="scale(0.015625)"/>
        <path id="DejaVuSans-13" d="M 2034 4250 
Q 1547 4250 1301 3770 
Q 1056 3291 1056 2328 
Q 1056 1369 1301 889 
Q 1547 409 2034 409 
Q 2525 409 2770 889 
Q 3016 1369 3016 2328 
Q 3016 3291 2770 3770 
Q 2525 4250 2034 4250 
z
M 2034 4750 
Q 2819 4750 3233 4129 
Q 3647 3509 3647 2328 
Q 3647 1150 3233 529 
Q 2819 -91 2034 -91 
Q 1250 -91 836 529 
Q 422 1150 422 2328 
Q 422 3509 836 4129 
Q 1250 4750 2034 4750 
z
" transform="scale(0.015625)"/>
       </defs>
       <use xlink:href="#DejaVuSans-15"/>
       <use xlink:href="#DejaVuSans-13" transform="translate(63.625 0)"/>
       <use xlink:href="#DejaVuSans-13" transform="translate(127.25 0)"/>
       <use xlink:href="#DejaVuSans-13" transform="translate(190.875 0)"/>
      </g>
     </g>
    </g>
    <g id="xtick_2">
     <g id="line2d_2">
      <g>
       <use xlink:href="#m1f6d2efedc" x="183.285108" y="390.2" style="stroke: #000000; stroke-width: 0.8"/>
      </g>
     </g>
     <g id="text_2">
      <!-- 2004 -->
      <g transform="translate(170.560108 404.797656) scale(0.1 -0.1)">
       <defs>
        <path id="DejaVuSans-17" d="M 2419 4116 
L 825 1625 
L 2419 1625 
L 2419 4116 
z
M 2253 4666 
L 3047 4666 
L 3047 1625 
L 3713 1625 
L 3713 1100 
L 3047 1100 
L 3047 0 
L 2419 0 
L 2419 1100 
L 313 1100 
L 313 1709 
L 2253 4666 
z
" transform="scale(0.015625)"/>
       </defs>
       <use xlink:href="#DejaVuSans-15"/>
       <use xlink:href="#DejaVuSans-13" transform="translate(63.625 0)"/>
       <use xlink:href="#DejaVuSans-13" transform="translate(127.25 0)"/>
       <use xlink:href="#DejaVuSans-17" transform="translate(190.875 0)"/>
      </g>
     </g>
    </g>
    <g id="xtick_3">
     <g id="line2d_3">
      <g>
       <use xlink:href="#m1f6d2efedc" x="287.182524" y="390.2" style="stroke: #000000; stroke-width: 0.8"/>
      </g>
     </g>
     <g id="text_3">
      <!-- 2008 -->
      <g transform="translate(274.457524 404.797656) scale(0.1 -0.1)">
       <defs>
        <path id="DejaVuSans-1b" d="M 2034 2216 
Q 1584 2216 1326 1975 
Q 1069 1734 1069 1313 
Q 1069 891 1326 650 
Q 1584 409 2034 409 
Q 2484 409 2743 651 
Q 3003 894 3003 1313 
Q 3003 1734 2745 1975 
Q 2488 2216 2034 2216 
z
M 1403 2484 
Q 997 2584 770 2862 
Q 544 3141 544 3541 
Q 544 4100 942 4425 
Q 1341 4750 2034 4750 
Q 2731 4750 3128 4425 
Q 3525 4100 3525 3541 
Q 3525 3141 3298 2862 
Q 3072 2584 2669 2484 
Q 3125 2378 3379 2068 
Q 3634 1759 3634 1313 
Q 3634 634 3220 271 
Q 2806 -91 2034 -91 
Q 1263 -91 848 271 
Q 434 634 434 1313 
Q 434 1759 690 2068 
Q 947 2378 1403 2484 
z
M 1172 3481 
Q 1172 3119 1398 2916 
Q 1625 2713 2034 2713 
Q 2441 2713 2670 2916 
Q 2900 3119 2900 3481 
Q 2900 3844 2670 4047 
Q 2441 4250 2034 4250 
Q 1625 4250 1398 4047 
Q 1172 3844 1172 3481 
z
" transform="scale(0.015625)"/>
       </defs>
       <use xlink:href="#DejaVuSans-15"/>
       <use xlink:href="#DejaVuSans-13" transform="translate(63.625 0)"/>
       <use xlink:href="#DejaVuSans-13" transform="translate(127.25 0)"/>
       <use xlink:href="#DejaVuSans-1b" transform="translate(190.875 0)"/>
      </g>
     </g>
    </g>
    <g id="xtick_4">
     <g id="line2d_4">
      <g>
       <use xlink:href="#m1f6d2efedc" x="391.07994" y="390.2" style="stroke: #000000; stroke-width: 0.8"/>
      </g>
     </g>
     <g id="text_4">
      <!-- 2012 -->
      <g transform="translate(378.35494 404.797656) scale(0.1 -0.1)">
       <defs>
        <path id="DejaVuSans-14" d="M 794 531 
L 1825 531 
L 1825 4091 
L 703 3866 
L 703 4441 
L 1819 4666 
L 2450 4666 
L 2450 531 
L 3481 531 
L 3481 0 
L 794 0 
L 794 531 
z
" transform="scale(0.015625)"/>
       </defs>
       <use xlink:href="#DejaVuSans-15"/>
       <use xlink:href="#DejaVuSans-13" transform="translate(63.625 0)"/>
       <use xlink:href="#DejaVuSans-14" transform="translate(127.25 0)"/>
       <use xlink:href="#DejaVuSans-15" transform="translate(190.875 0)"/>
      </g>
     </g>
    </g>
    <g id="xtick_5">
     <g id="line2d_5">
      <g>
       <use xlink:href="#m1f6d2efedc" x="494.977355" y="390.2" style="stroke: #000000; stroke-width: 0.8"/>
      </g>
     </g>
     <g id="text_5">
      <!-- 2016 -->
      <g transform="translate(482.252355 404.797656) scale(0.1 -0.1)">
       <defs>
        <path id="DejaVuSans-19" d="M 2113 2584 
Q 1688 2584 1439 2293 
Q 1191 2003 1191 1497 
Q 1191 994 1439 701 
Q 1688 409 2113 409 
Q 2538 409 2786 701 
Q 3034 994 3034 1497 
Q 3034 2003 2786 2293 
Q 2538 2584 2113 2584 
z
M 3366 4563 
L 3366 3988 
Q 3128 4100 2886 4159 
Q 2644 4219 2406 4219 
Q 1781 4219 1451 3797 
Q 1122 3375 1075 2522 
Q 1259 2794 1537 2939 
Q 1816 3084 2150 3084 
Q 2853 3084 3261 2657 
Q 3669 2231 3669 1497 
Q 3669 778 3244 343 
Q 2819 -91 2113 -91 
Q 1303 -91 875 529 
Q 447 1150 447 2328 
Q 447 3434 972 4092 
Q 1497 4750 2381 4750 
Q 2619 4750 2861 4703 
Q 3103 4656 3366 4563 
z
" transform="scale(0.015625)"/>
       </defs>
       <use xlink:href="#DejaVuSans-15"/>
       <use xlink:href="#DejaVuSans-13" transform="translate(63.625 0)"/>
       <use xlink:href="#DejaVuSans-14" transform="translate(127.25 0)"/>
       <use xlink:href="#DejaVuSans-19" transform="translate(190.875 0)"/>
      </g>
     </g>
    </g>
    <g id="xtick_6">
     <g id="line2d_6">
      <g>
       <use xlink:href="#m1f6d2efedc" x="598.874771" y="390.2" style="stroke: #000000; stroke-width: 0.8"/>
      </g>
     </g>
     <g id="text_6">
      <!-- 2020 -->
      <g transform="translate(586.149771 404.797656) scale(0.1 -0.1)">
       <use xlink:href="#DejaVuSans-15"/>
       <use xlink:href="#DejaVuSans-13" transform="translate(63.625 0)"/>
       <use xlink:href="#DejaVuSans-15" transform="translate(127.25 0)"/>
       <use xlink:href="#DejaVuSans-13" transform="translate(190.875 0)"/>
      </g>
     </g>
    </g>
    <g id="xtick_7">
     <g id="line2d_7">
      <g>
       <use xlink:href="#m1f6d2efedc" x="702.772187" y="390.2" style="stroke: #000000; stroke-width: 0.8"/>
      </g>
     </g>
     <g id="text_7">
      <!-- 2024 -->
      <g transform="translate(690.047187 404.797656) scale(0.1 -0.1)">
       <use xlink:href="#DejaVuSans-15"/>
       <use xlink:href="#DejaVuSans-13" transform="translate(63.625 0)"/>
       <use xlink:href="#DejaVuSans-15" transform="translate(127.25 0)"/>
       <use xlink:href="#DejaVuSans-17" transform="translate(190.875 0)"/>
      </g>
     </g>
    </g>
    <g id="text_8">
     <!-- DATE -->
     <g transform="translate(409.433359 418.797656) scale(0.1 -0.1)">
      <defs>
       <path id="DejaVuSans-27" d="M 1259 4147 
L 1259 519 
L 2022 519 
Q 2988 519 3436 956 
Q 3884 1394 3884 2338 
Q 3884 3275 3436 3711 
Q 2988 4147 2022 4147 
L 1259 4147 
z
M 628 4666 
L 1925 4666 
Q 3281 4666 3915 4102 
Q 4550 3538 4550 2338 
Q 4550 1131 3912 565 
Q 3275 0 1925 0 
L 628 0 
L 628 4666 
z
" transform="scale(0.015625)"/>
       <path id="DejaVuSans-24" d="M 2188 4044 
L 1331 1722 
L 3047 1722 
L 2188 4044 
z
M 1831 4666 
L 2547 4666 
L 4325 0 
L 3669 0 
L 3244 1197 
L 1141 1197 
L 716 0 
L 50 0 
L 1831 4666 
z
" transform="scale(0.015625)"/>
       <path id="DejaVuSans-37" d="M -19 4666 
L 3928 4666 
L 3928 4134 
L 2272 4134 
L 2272 0 
L 1638 0 
L 1638 4134 
L -19 4134 
L -19 4666 
z
" transform="scale(0.015625)"/>
       <path id="DejaVuSans-28" d="M 628 4666 
L 3578 4666 
L 3578 4134 
L 1259 4134 
L 1259 2753 
L 3481 2753 
L 3481 2222 
L 1259 2222 
L 1259 531 
L 3634 531 
L 3634 0 
L 628 0 
L 628 4666 
z
" transform="scale(0.015625)"/>
      </defs>
      <use xlink:href="#DejaVuSans-27"/>
      <use xlink:href="#DejaVuSans-24" transform="translate(75.25 0)"/>
      <use xlink:href="#DejaVuSans-37" transform="translate(135.890625 0)"/>
      <use xlink:href="#DejaVuSans-28" transform="translate(196.96875 0)"/>
     </g>
    </g>
   </g>
   <g id="matplotlib.axis_2">
    <g id="ytick_1">
     <g id="line2d_8">
      <defs>
       <path id="m2c97972979" d="M 0 0 
L -3.5 0 
" style="stroke: #000000; stroke-width: 0.8"/>
      </defs>
      <g>
       <use xlink:href="#m2c97972979" x="45.082344" y="356.234545" style="stroke: #000000; stroke-width: 0.8"/>
      </g>
     </g>
     <g id="text_9">
      <!-- 4 -->
      <g transform="translate(31.719844 360.033374) scale(0.1 -0.1)">
       <use xlink:href="#DejaVuSans-17"/>
      </g>
     </g>
    </g>
    <g id="ytick_2">
     <g id="line2d_9">
      <g>
       <use xlink:href="#m2c97972979" x="45.082344" y="298.173939" style="stroke: #000000; stroke-width: 0.8"/>
      </g>
     </g>
     <g id="text_10">
      <!-- 6 -->
      <g transform="translate(31.719844 301.972768) scale(0.1 -0.1)">
       <use xlink:href="#DejaVuSans-19"/>
      </g>
     </g>
    </g>
    <g id="ytick_3">
     <g id="line2d_10">
      <g>
       <use xlink:href="#m2c97972979" x="45.082344" y="240.113333" style="stroke: #000000; stroke-width: 0.8"/>
      </g>
     </g>
     <g id="text_11">
      <!-- 8 -->
      <g transform="translate(31.719844 243.912161) scale(0.1 -0.1)">
       <use xlink:href="#DejaVuSans-1b"/>
      </g>
     </g>
    </g>
    <g id="ytick_4">
     <g id="line2d_11">
      <g>
       <use xlink:href="#m2c97972979" x="45.082344" y="182.052727" style="stroke: #000000; stroke-width: 0.8"/>
      </g>
     </g>
     <g id="text_12">
      <!-- 10 -->
      <g transform="translate(25.357344 185.851555) scale(0.1 -0.1)">
       <use xlink:href="#DejaVuSans-14"/>
       <use xlink:href="#DejaVuSans-13" transform="translate(63.625 0)"/>
      </g>
     </g>
    </g>
    <g id="ytick_5">
     <g id="line2d_12">
      <g>
       <use xlink:href="#m2c97972979" x="45.082344" y="123.992121" style="stroke: #000000; stroke-width: 0.8"/>
      </g>
     </g>
     <g id="text_13">
      <!-- 12 -->
      <g transform="translate(25.357344 127.790949) scale(0.1 -0.1)">
       <use xlink:href="#DejaVuSans-14"/>
       <use xlink:href="#DejaVuSans-15" transform="translate(63.625 0)"/>
      </g>
     </g>
    </g>
    <g id="ytick_6">
     <g id="line2d_13">
      <g>
       <use xlink:href="#m2c97972979" x="45.082344" y="65.931515" style="stroke: #000000; stroke-width: 0.8"/>
      </g>
     </g>
     <g id="text_14">
      <!-- 14 -->
      <g transform="translate(25.357344 69.730343) scale(0.1 -0.1)">
       <use xlink:href="#DejaVuSans-14"/>
       <use xlink:href="#DejaVuSans-17" transform="translate(63.625 0)"/>
      </g>
     </g>
    </g>
    <g id="text_15">
     <!-- Unemployment Rate (%) -->
     <g style="fill: #0000ff" transform="translate(18.955 269.908125) rotate(-90) scale(0.1 -0.1)">
      <defs>
       <path id="DejaVuSans-38" d="M 556 4666 
L 1191 4666 
L 1191 1831 
Q 1191 1081 1462 751 
Q 1734 422 2344 422 
Q 2950 422 3222 751 
Q 3494 1081 3494 1831 
L 3494 4666 
L 4128 4666 
L 4128 1753 
Q 4128 841 3676 375 
Q 3225 -91 2344 -91 
Q 1459 -91 1007 375 
Q 556 841 556 1753 
L 556 4666 
z
" transform="scale(0.015625)"/>
       <path id="DejaVuSans-51" d="M 3513 2113 
L 3513 0 
L 2938 0 
L 2938 2094 
Q 2938 2591 2744 2837 
Q 2550 3084 2163 3084 
Q 1697 3084 1428 2787 
Q 1159 2491 1159 1978 
L 1159 0 
L 581 0 
L 581 3500 
L 1159 3500 
L 1159 2956 
Q 1366 3272 1645 3428 
Q 1925 3584 2291 3584 
Q 2894 3584 3203 3211 
Q 3513 2838 3513 2113 
z
" transform="scale(0.015625)"/>
       <path id="DejaVuSans-48" d="M 3597 1894 
L 3597 1613 
L 953 1613 
Q 991 1019 1311 708 
Q 1631 397 2203 397 
Q 2534 397 2845 478 
Q 3156 559 3463 722 
L 3463 178 
Q 3153 47 2828 -22 
Q 2503 -91 2169 -91 
Q 1331 -91 842 396 
Q 353 884 353 1716 
Q 353 2575 817 3079 
Q 1281 3584 2069 3584 
Q 2775 3584 3186 3129 
Q 3597 2675 3597 1894 
z
M 3022 2063 
Q 3016 2534 2758 2815 
Q 2500 3097 2075 3097 
Q 1594 3097 1305 2825 
Q 1016 2553 972 2059 
L 3022 2063 
z
" transform="scale(0.015625)"/>
       <path id="DejaVuSans-50" d="M 3328 2828 
Q 3544 3216 3844 3400 
Q 4144 3584 4550 3584 
Q 5097 3584 5394 3201 
Q 5691 2819 5691 2113 
L 5691 0 
L 5113 0 
L 5113 2094 
Q 5113 2597 4934 2840 
Q 4756 3084 4391 3084 
Q 3944 3084 3684 2787 
Q 3425 2491 3425 1978 
L 3425 0 
L 2847 0 
L 2847 2094 
Q 2847 2600 2669 2842 
Q 2491 3084 2119 3084 
Q 1678 3084 1418 2786 
Q 1159 2488 1159 1978 
L 1159 0 
L 581 0 
L 581 3500 
L 1159 3500 
L 1159 2956 
Q 1356 3278 1631 3431 
Q 1906 3584 2284 3584 
Q 2666 3584 2933 3390 
Q 3200 3197 3328 2828 
z
" transform="scale(0.015625)"/>
       <path id="DejaVuSans-53" d="M 1159 525 
L 1159 -1331 
L 581 -1331 
L 581 3500 
L 1159 3500 
L 1159 2969 
Q 1341 3281 1617 3432 
Q 1894 3584 2278 3584 
Q 2916 3584 3314 3078 
Q 3713 2572 3713 1747 
Q 3713 922 3314 415 
Q 2916 -91 2278 -91 
Q 1894 -91 1617 61 
Q 1341 213 1159 525 
z
M 3116 1747 
Q 3116 2381 2855 2742 
Q 2594 3103 2138 3103 
Q 1681 3103 1420 2742 
Q 1159 2381 1159 1747 
Q 1159 1113 1420 752 
Q 1681 391 2138 391 
Q 2594 391 2855 752 
Q 3116 1113 3116 1747 
z
" transform="scale(0.015625)"/>
       <path id="DejaVuSans-4f" d="M 603 4863 
L 1178 4863 
L 1178 0 
L 603 0 
L 603 4863 
z
" transform="scale(0.015625)"/>
       <path id="DejaVuSans-52" d="M 1959 3097 
Q 1497 3097 1228 2736 
Q 959 2375 959 1747 
Q 959 1119 1226 758 
Q 1494 397 1959 397 
Q 2419 397 2687 759 
Q 2956 1122 2956 1747 
Q 2956 2369 2687 2733 
Q 2419 3097 1959 3097 
z
M 1959 3584 
Q 2709 3584 3137 3096 
Q 3566 2609 3566 1747 
Q 3566 888 3137 398 
Q 2709 -91 1959 -91 
Q 1206 -91 779 398 
Q 353 888 353 1747 
Q 353 2609 779 3096 
Q 1206 3584 1959 3584 
z
" transform="scale(0.015625)"/>
       <path id="DejaVuSans-5c" d="M 2059 -325 
Q 1816 -950 1584 -1140 
Q 1353 -1331 966 -1331 
L 506 -1331 
L 506 -850 
L 844 -850 
Q 1081 -850 1212 -737 
Q 1344 -625 1503 -206 
L 1606 56 
L 191 3500 
L 800 3500 
L 1894 763 
L 2988 3500 
L 3597 3500 
L 2059 -325 
z
" transform="scale(0.015625)"/>
       <path id="DejaVuSans-57" d="M 1172 4494 
L 1172 3500 
L 2356 3500 
L 2356 3053 
L 1172 3053 
L 1172 1153 
Q 1172 725 1289 603 
Q 1406 481 1766 481 
L 2356 481 
L 2356 0 
L 1766 0 
Q 1100 0 847 248 
Q 594 497 594 1153 
L 594 3053 
L 172 3053 
L 172 3500 
L 594 3500 
L 594 4494 
L 1172 4494 
z
" transform="scale(0.015625)"/>
       <path id="DejaVuSans-3" transform="scale(0.015625)"/>
       <path id="DejaVuSans-35" d="M 2841 2188 
Q 3044 2119 3236 1894 
Q 3428 1669 3622 1275 
L 4263 0 
L 3584 0 
L 2988 1197 
Q 2756 1666 2539 1819 
Q 2322 1972 1947 1972 
L 1259 1972 
L 1259 0 
L 628 0 
L 628 4666 
L 2053 4666 
Q 2853 4666 3247 4331 
Q 3641 3997 3641 3322 
Q 3641 2881 3436 2590 
Q 3231 2300 2841 2188 
z
M 1259 4147 
L 1259 2491 
L 2053 2491 
Q 2509 2491 2742 2702 
Q 2975 2913 2975 3322 
Q 2975 3731 2742 3939 
Q 2509 4147 2053 4147 
L 1259 4147 
z
" transform="scale(0.015625)"/>
       <path id="DejaVuSans-44" d="M 2194 1759 
Q 1497 1759 1228 1600 
Q 959 1441 959 1056 
Q 959 750 1161 570 
Q 1363 391 1709 391 
Q 2188 391 2477 730 
Q 2766 1069 2766 1631 
L 2766 1759 
L 2194 1759 
z
M 3341 1997 
L 3341 0 
L 2766 0 
L 2766 531 
Q 2569 213 2275 61 
Q 1981 -91 1556 -91 
Q 1019 -91 701 211 
Q 384 513 384 1019 
Q 384 1609 779 1909 
Q 1175 2209 1959 2209 
L 2766 2209 
L 2766 2266 
Q 2766 2663 2505 2880 
Q 2244 3097 1772 3097 
Q 1472 3097 1187 3025 
Q 903 2953 641 2809 
L 641 3341 
Q 956 3463 1253 3523 
Q 1550 3584 1831 3584 
Q 2591 3584 2966 3190 
Q 3341 2797 3341 1997 
z
" transform="scale(0.015625)"/>
       <path id="DejaVuSans-b" d="M 1984 4856 
Q 1566 4138 1362 3434 
Q 1159 2731 1159 2009 
Q 1159 1288 1364 580 
Q 1569 -128 1984 -844 
L 1484 -844 
Q 1016 -109 783 600 
Q 550 1309 550 2009 
Q 550 2706 781 3412 
Q 1013 4119 1484 4856 
L 1984 4856 
z
" transform="scale(0.015625)"/>
       <path id="DejaVuSans-8" d="M 4653 2053 
Q 4381 2053 4226 1822 
Q 4072 1591 4072 1178 
Q 4072 772 4226 539 
Q 4381 306 4653 306 
Q 4919 306 5073 539 
Q 5228 772 5228 1178 
Q 5228 1588 5073 1820 
Q 4919 2053 4653 2053 
z
M 4653 2450 
Q 5147 2450 5437 2106 
Q 5728 1763 5728 1178 
Q 5728 594 5436 251 
Q 5144 -91 4653 -91 
Q 4153 -91 3862 251 
Q 3572 594 3572 1178 
Q 3572 1766 3864 2108 
Q 4156 2450 4653 2450 
z
M 1428 4353 
Q 1159 4353 1004 4120 
Q 850 3888 850 3481 
Q 850 3069 1003 2837 
Q 1156 2606 1428 2606 
Q 1700 2606 1854 2837 
Q 2009 3069 2009 3481 
Q 2009 3884 1853 4118 
Q 1697 4353 1428 4353 
z
M 4250 4750 
L 4750 4750 
L 1831 -91 
L 1331 -91 
L 4250 4750 
z
M 1428 4750 
Q 1922 4750 2215 4408 
Q 2509 4066 2509 3481 
Q 2509 2891 2217 2550 
Q 1925 2209 1428 2209 
Q 931 2209 642 2551 
Q 353 2894 353 3481 
Q 353 4063 643 4406 
Q 934 4750 1428 4750 
z
" transform="scale(0.015625)"/>
       <path id="DejaVuSans-c" d="M 513 4856 
L 1013 4856 
Q 1481 4119 1714 3412 
Q 1947 2706 1947 2009 
Q 1947 1309 1714 600 
Q 1481 -109 1013 -844 
L 513 -844 
Q 928 -128 1133 580 
Q 1338 1288 1338 2009 
Q 1338 2731 1133 3434 
Q 928 4138 513 4856 
z
" transform="scale(0.015625)"/>
      </defs>
      <use xlink:href="#DejaVuSans-38"/>
      <use xlink:href="#DejaVuSans-51" transform="translate(73.1875 0)"/>
      <use xlink:href="#DejaVuSans-48" transform="translate(136.5625 0)"/>
      <use xlink:href="#DejaVuSans-50" transform="translate(198.09375 0)"/>
      <use xlink:href="#DejaVuSans-53" transform="translate(295.5 0)"/>
      <use xlink:href="#DejaVuSans-4f" transform="translate(358.984375 0)"/>
      <use xlink:href="#DejaVuSans-52" transform="translate(386.765625 0)"/>
      <use xlink:href="#DejaVuSans-5c" transform="translate(447.953125 0)"/>
      <use xlink:href="#DejaVuSans-50" transform="translate(507.140625 0)"/>
      <use xlink:href="#DejaVuSans-48" transform="translate(604.546875 0)"/>
      <use xlink:href="#DejaVuSans-51" transform="translate(666.078125 0)"/>
      <use xlink:href="#DejaVuSans-57" transform="translate(729.453125 0)"/>
      <use xlink:href="#DejaVuSans-3" transform="translate(768.65625 0)"/>
      <use xlink:href="#DejaVuSans-35" transform="translate(800.4375 0)"/>
      <use xlink:href="#DejaVuSans-44" transform="translate(867.71875 0)"/>
      <use xlink:href="#DejaVuSans-57" transform="translate(929 0)"/>
      <use xlink:href="#DejaVuSans-48" transform="translate(968.203125 0)"/>
      <use xlink:href="#DejaVuSans-3" transform="translate(1029.734375 0)"/>
      <use xlink:href="#DejaVuSans-b" transform="translate(1061.515625 0)"/>
      <use xlink:href="#DejaVuSans-8" transform="translate(1100.53125 0)"/>
      <use xlink:href="#DejaVuSans-c" transform="translate(1195.546875 0)"/>
     </g>
    </g>
   </g>
   <g id="line2d_14">
    <path d="M 79.387692 356.234545 
L 81.592223 353.331515 
L 83.654526 356.234545 
L 85.859057 362.040606 
L 87.992474 356.234545 
L 92.330423 356.234545 
L 94.534954 353.331515 
L 96.739485 359.137576 
L 103.21085 359.137576 
L 105.415381 350.428485 
L 107.619912 350.428485 
L 109.611102 347.525455 
L 111.815633 344.622424 
L 113.94905 347.525455 
L 116.153581 341.719394 
L 118.286998 338.816364 
L 120.491529 330.107273 
L 122.69606 327.204242 
L 124.829477 318.495152 
L 129.167426 306.88303 
L 135.567677 306.88303 
L 137.772208 301.07697 
L 139.905625 303.98 
L 144.243574 303.98 
L 146.448105 306.88303 
L 150.786053 306.88303 
L 152.990584 301.07697 
L 155.124001 298.173939 
L 157.328532 303.98 
L 159.533063 301.07697 
L 161.524253 301.07697 
L 165.862201 295.270909 
L 168.066732 289.464848 
L 172.40468 295.270909 
L 174.609211 295.270909 
L 176.742628 298.173939 
L 178.947159 303.98 
L 181.080577 306.88303 
L 183.285108 306.88303 
L 185.489639 309.786061 
L 187.551942 303.98 
L 189.756473 309.786061 
L 194.094421 309.786061 
L 198.43237 315.592121 
L 200.636901 315.592121 
L 202.770318 312.689091 
L 204.974849 315.592121 
L 207.108266 315.592121 
L 209.312797 318.495152 
L 211.517328 315.592121 
L 213.508518 321.398182 
L 215.713049 321.398182 
L 220.050997 327.204242 
L 222.184414 327.204242 
L 224.388945 330.107273 
L 226.593476 327.204242 
L 230.931424 327.204242 
L 233.064842 330.107273 
L 235.269373 335.913333 
L 237.473904 333.010303 
L 239.465093 335.913333 
L 241.669624 335.913333 
L 243.803041 338.816364 
L 246.007572 338.816364 
L 248.14099 335.913333 
L 250.345521 335.913333 
L 252.550052 341.719394 
L 254.683469 344.622424 
L 256.888 341.719394 
L 259.021417 344.622424 
L 261.225948 338.816364 
L 263.430479 341.719394 
L 265.421669 344.622424 
L 267.6262 341.719394 
L 269.759617 344.622424 
L 271.964148 338.816364 
L 274.097565 335.913333 
L 276.302096 338.816364 
L 278.506627 335.913333 
L 282.844575 335.913333 
L 284.977993 327.204242 
L 287.182524 327.204242 
L 289.387055 330.107273 
L 291.449358 324.301212 
L 293.653889 327.204242 
L 295.787306 315.592121 
L 300.125254 303.98 
L 302.329785 295.270909 
L 304.534317 295.270909 
L 306.667734 283.658788 
L 308.872265 274.949697 
L 313.210213 245.919394 
L 315.414744 231.404242 
L 317.405933 219.792121 
L 319.610465 211.08303 
L 321.743882 199.470909 
L 323.948413 196.567879 
L 326.08183 196.567879 
L 328.286361 193.664848 
L 332.624309 182.052727 
L 334.82884 184.955758 
L 336.962257 184.955758 
L 339.166789 187.858788 
L 341.37132 187.858788 
L 343.362509 184.955758 
L 345.56704 184.955758 
L 347.700457 193.664848 
L 349.904988 199.470909 
L 352.038405 199.470909 
L 354.242937 196.567879 
L 356.447468 196.567879 
L 358.580885 199.470909 
L 360.785416 187.858788 
L 362.918833 202.373939 
L 365.123364 208.18 
L 367.327895 211.08303 
L 369.319084 211.08303 
L 371.523616 208.18 
L 373.657033 211.08303 
L 375.861564 208.18 
L 377.994981 211.08303 
L 382.404043 211.08303 
L 386.741991 222.695152 
L 388.875408 225.598182 
L 391.07994 231.404242 
L 393.284471 231.404242 
L 395.346774 234.307273 
L 404.02267 234.307273 
L 406.227201 237.210303 
L 408.431732 245.919394 
L 410.56515 245.919394 
L 412.769681 248.822424 
L 414.903098 243.016364 
L 417.107629 240.113333 
L 419.31216 248.822424 
L 421.303349 254.628485 
L 423.50788 251.725455 
L 425.641298 254.628485 
L 427.845829 254.628485 
L 429.979246 260.434545 
L 432.183777 263.337576 
L 436.521725 263.337576 
L 438.726256 272.046667 
L 440.859673 277.852727 
L 443.064204 280.755758 
L 445.268736 277.852727 
L 447.259925 277.852727 
L 449.464456 292.367879 
L 451.597873 289.464848 
L 453.802404 295.270909 
L 455.935821 292.367879 
L 458.140352 295.270909 
L 462.478301 306.88303 
L 464.682832 303.98 
L 466.816249 309.786061 
L 469.02078 306.88303 
L 471.225311 312.689091 
L 473.2165 315.592121 
L 475.421031 315.592121 
L 477.554449 309.786061 
L 479.75898 318.495152 
L 484.096928 324.301212 
L 486.301459 327.204242 
L 488.434876 327.204242 
L 490.639407 324.301212 
L 492.772824 327.204242 
L 494.977355 333.010303 
L 497.181887 330.107273 
L 499.24419 327.204242 
L 501.448721 324.301212 
L 503.582138 333.010303 
L 505.786669 330.107273 
L 507.920086 333.010303 
L 512.329148 327.204242 
L 514.462566 330.107273 
L 516.667097 335.913333 
L 521.005045 335.913333 
L 523.209576 338.816364 
L 525.200765 344.622424 
L 529.538714 344.622424 
L 531.743245 347.525455 
L 533.876662 347.525455 
L 536.081193 344.622424 
L 540.419141 350.428485 
L 542.623672 350.428485 
L 546.96162 356.234545 
L 549.166151 353.331515 
L 551.157341 356.234545 
L 553.361872 356.234545 
L 555.495289 362.040606 
L 557.69982 356.234545 
L 559.833237 362.040606 
L 562.037768 362.040606 
L 564.242299 364.943636 
L 566.375717 362.040606 
L 568.580248 362.040606 
L 572.918196 356.234545 
L 575.122727 362.040606 
L 577.113916 362.040606 
L 581.451865 367.846667 
L 583.656396 367.846667 
L 585.789813 364.943636 
L 590.198875 370.749697 
L 592.332292 367.846667 
L 598.874771 367.846667 
L 601.079302 370.749697 
L 603.141606 344.622424 
L 605.346137 42.707273 
L 607.479554 89.155758 
L 609.684085 153.022424 
L 611.817502 176.246667 
L 614.022033 228.501212 
L 616.226564 245.919394 
L 618.359982 272.046667 
L 620.564513 277.852727 
L 622.69793 277.852727 
L 624.902461 286.561818 
L 627.106992 292.367879 
L 629.098181 295.270909 
L 631.302712 295.270909 
L 633.436129 303.98 
L 635.640661 301.07697 
L 637.774078 315.592121 
L 639.978609 324.301212 
L 642.18314 335.913333 
L 644.316557 341.719394 
L 646.521088 353.331515 
L 648.654505 359.137576 
L 650.859036 356.234545 
L 653.063567 359.137576 
L 655.054757 364.943636 
L 657.259288 364.943636 
L 659.392705 367.846667 
L 661.597236 367.846667 
L 663.730653 370.749697 
L 665.935184 367.846667 
L 668.139715 370.749697 
L 670.273133 367.846667 
L 672.477664 367.846667 
L 674.611081 370.749697 
L 676.815612 370.749697 
L 679.020143 367.846667 
L 681.011332 370.749697 
L 683.215863 373.652727 
L 685.34928 367.846667 
L 687.553812 367.846667 
L 689.687229 370.749697 
L 691.89176 364.943636 
L 694.096291 364.943636 
L 696.229708 359.137576 
L 698.434239 364.943636 
L 700.567656 362.040606 
L 702.772187 364.943636 
L 704.976718 359.137576 
L 711.37697 359.137576 
L 713.581501 353.331515 
L 715.714918 350.428485 
L 717.919449 350.428485 
L 720.12398 353.331515 
L 722.257397 353.331515 
L 724.461929 350.428485 
L 728.799877 356.234545 
L 731.004408 350.428485 
L 735.200128 350.428485 
L 737.333545 347.525455 
L 739.538076 353.331515 
L 741.671494 347.525455 
L 743.876025 347.525455 
L 746.080556 344.622424 
L 750.418504 341.719394 
L 754.756452 347.525455 
L 756.960983 344.622424 
L 758.952173 347.525455 
L 763.290121 347.525455 
L 765.494652 350.428485 
L 765.494652 350.428485 
" clip-path="url(#p7e3b33bf58)" style="fill: none; stroke: #0000ff; stroke-width: 1.5; stroke-linecap: square"/>
   </g>
   <g id="patch_3">
    <path d="M 45.082344 390.2 
L 45.082344 26.16 
" style="fill: none; stroke: #000000; stroke-width: 0.8; stroke-linejoin: miter; stroke-linecap: square"/>
   </g>
   <g id="patch_4">
    <path d="M 799.8 390.2 
L 799.8 26.16 
" style="fill: none; stroke: #000000; stroke-width: 0.8; stroke-linejoin: miter; stroke-linecap: square"/>
   </g>
   <g id="patch_5">
    <path d="M 45.082344 390.2 
L 799.8 390.2 
" style="fill: none; stroke: #000000; stroke-width: 0.8; stroke-linejoin: miter; stroke-linecap: square"/>
   </g>
   <g id="patch_6">
    <path d="M 45.082344 26.16 
L 799.8 26.16 
" style="fill: none; stroke: #000000; stroke-width: 0.8; stroke-linejoin: miter; stroke-linecap: square"/>
   </g>
   <g id="legend_1">
    <g id="patch_7">
     <path d="M 637.34375 49.160781 
L 792.8 49.160781 
Q 794.8 49.160781 794.8 47.160781 
L 794.8 33.16 
Q 794.8 31.16 792.8 31.16 
L 637.34375 31.16 
Q 635.34375 31.16 635.34375 33.16 
L 635.34375 47.160781 
Q 635.34375 49.160781 637.34375 49.160781 
z
" style="fill: #ffffff; opacity: 0.8; stroke: #cccccc; stroke-linejoin: miter"/>
    </g>
    <g id="line2d_15">
     <path d="M 639.34375 39.258437 
L 649.34375 39.258437 
L 659.34375 39.258437 
" style="fill: none; stroke: #0000ff; stroke-width: 1.5; stroke-linecap: square"/>
    </g>
    <g id="text_16">
     <!-- Unemployment Rate (%) -->
     <g transform="translate(667.34375 42.758437) scale(0.1 -0.1)">
      <use xlink:href="#DejaVuSans-38"/>
      <use xlink:href="#DejaVuSans-51" transform="translate(73.1875 0)"/>
      <use xlink:href="#DejaVuSans-48" transform="translate(136.5625 0)"/>
      <use xlink:href="#DejaVuSans-50" transform="translate(198.09375 0)"/>
      <use xlink:href="#DejaVuSans-53" transform="translate(295.5 0)"/>
      <use xlink:href="#DejaVuSans-4f" transform="translate(358.984375 0)"/>
      <use xlink:href="#DejaVuSans-52" transform="translate(386.765625 0)"/>
      <use xlink:href="#DejaVuSans-5c" transform="translate(447.953125 0)"/>
      <use xlink:href="#DejaVuSans-50" transform="translate(507.140625 0)"/>
      <use xlink:href="#DejaVuSans-48" transform="translate(604.546875 0)"/>
      <use xlink:href="#DejaVuSans-51" transform="translate(666.078125 0)"/>
      <use xlink:href="#DejaVuSans-57" transform="translate(729.453125 0)"/>
      <use xlink:href="#DejaVuSans-3" transform="translate(768.65625 0)"/>
      <use xlink:href="#DejaVuSans-35" transform="translate(800.4375 0)"/>
      <use xlink:href="#DejaVuSans-44" transform="translate(867.71875 0)"/>
      <use xlink:href="#DejaVuSans-57" transform="translate(929 0)"/>
      <use xlink:href="#DejaVuSans-48" transform="translate(968.203125 0)"/>
      <use xlink:href="#DejaVuSans-3" transform="translate(1029.734375 0)"/>
      <use xlink:href="#DejaVuSans-b" transform="translate(1061.515625 0)"/>
      <use xlink:href="#DejaVuSans-8" transform="translate(1100.53125 0)"/>
      <use xlink:href="#DejaVuSans-c" transform="translate(1195.546875 0)"/>
     </g>
    </g>
   </g>
  </g>
  <g id="axes_2">
   <g id="FillBetweenPolyCollection_2"/>
   <g id="matplotlib.axis_3">
    <g id="ytick_7">
     <g id="line2d_16">
      <defs>
       <path id="m07a0c9fbd3" d="M 0 0 
L 3.5 0 
" style="stroke: #000000; stroke-width: 0.8"/>
      </defs>
      <g>
       <use xlink:href="#m07a0c9fbd3" x="799.8" y="373.68571" style="stroke: #000000; stroke-width: 0.8"/>
      </g>
     </g>
     <g id="text_17">
      <!-- 10000 -->
      <g transform="translate(806.8 377.484539) scale(0.1 -0.1)">
       <use xlink:href="#DejaVuSans-14"/>
       <use xlink:href="#DejaVuSans-13" transform="translate(63.625 0)"/>
       <use xlink:href="#DejaVuSans-13" transform="translate(127.25 0)"/>
       <use xlink:href="#DejaVuSans-13" transform="translate(190.875 0)"/>
       <use xlink:href="#DejaVuSans-13" transform="translate(254.5 0)"/>
      </g>
     </g>
    </g>
    <g id="ytick_8">
     <g id="line2d_17">
      <g>
       <use xlink:href="#m07a0c9fbd3" x="799.8" y="298.001392" style="stroke: #000000; stroke-width: 0.8"/>
      </g>
     </g>
     <g id="text_18">
      <!-- 15000 -->
      <g transform="translate(806.8 301.80022) scale(0.1 -0.1)">
       <defs>
        <path id="DejaVuSans-18" d="M 691 4666 
L 3169 4666 
L 3169 4134 
L 1269 4134 
L 1269 2991 
Q 1406 3038 1543 3061 
Q 1681 3084 1819 3084 
Q 2600 3084 3056 2656 
Q 3513 2228 3513 1497 
Q 3513 744 3044 326 
Q 2575 -91 1722 -91 
Q 1428 -91 1123 -41 
Q 819 9 494 109 
L 494 744 
Q 775 591 1075 516 
Q 1375 441 1709 441 
Q 2250 441 2565 725 
Q 2881 1009 2881 1497 
Q 2881 1984 2565 2268 
Q 2250 2553 1709 2553 
Q 1456 2553 1204 2497 
Q 953 2441 691 2322 
L 691 4666 
z
" transform="scale(0.015625)"/>
       </defs>
       <use xlink:href="#DejaVuSans-14"/>
       <use xlink:href="#DejaVuSans-18" transform="translate(63.625 0)"/>
       <use xlink:href="#DejaVuSans-13" transform="translate(127.25 0)"/>
       <use xlink:href="#DejaVuSans-13" transform="translate(190.875 0)"/>
       <use xlink:href="#DejaVuSans-13" transform="translate(254.5 0)"/>
      </g>
     </g>
    </g>
    <g id="ytick_9">
     <g id="line2d_18">
      <g>
       <use xlink:href="#m07a0c9fbd3" x="799.8" y="222.317074" style="stroke: #000000; stroke-width: 0.8"/>
      </g>
     </g>
     <g id="text_19">
      <!-- 20000 -->
      <g transform="translate(806.8 226.115902) scale(0.1 -0.1)">
       <use xlink:href="#DejaVuSans-15"/>
       <use xlink:href="#DejaVuSans-13" transform="translate(63.625 0)"/>
       <use xlink:href="#DejaVuSans-13" transform="translate(127.25 0)"/>
       <use xlink:href="#DejaVuSans-13" transform="translate(190.875 0)"/>
       <use xlink:href="#DejaVuSans-13" transform="translate(254.5 0)"/>
      </g>
     </g>
    </g>
    <g id="ytick_10">
     <g id="line2d_19">
      <g>
       <use xlink:href="#m07a0c9fbd3" x="799.8" y="146.632755" style="stroke: #000000; stroke-width: 0.8"/>
      </g>
     </g>
     <g id="text_20">
      <!-- 25000 -->
      <g transform="translate(806.8 150.431584) scale(0.1 -0.1)">
       <use xlink:href="#DejaVuSans-15"/>
       <use xlink:href="#DejaVuSans-18" transform="translate(63.625 0)"/>
       <use xlink:href="#DejaVuSans-13" transform="translate(127.25 0)"/>
       <use xlink:href="#DejaVuSans-13" transform="translate(190.875 0)"/>
       <use xlink:href="#DejaVuSans-13" transform="translate(254.5 0)"/>
      </g>
     </g>
    </g>
    <g id="ytick_11">
     <g id="line2d_20">
      <g>
       <use xlink:href="#m07a0c9fbd3" x="799.8" y="70.948437" style="stroke: #000000; stroke-width: 0.8"/>
      </g>
     </g>
     <g id="text_21">
      <!-- 30000 -->
      <g transform="translate(806.8 74.747265) scale(0.1 -0.1)">
       <defs>
        <path id="DejaVuSans-16" d="M 2597 2516 
Q 3050 2419 3304 2112 
Q 3559 1806 3559 1356 
Q 3559 666 3084 287 
Q 2609 -91 1734 -91 
Q 1441 -91 1130 -33 
Q 819 25 488 141 
L 488 750 
Q 750 597 1062 519 
Q 1375 441 1716 441 
Q 2309 441 2620 675 
Q 2931 909 2931 1356 
Q 2931 1769 2642 2001 
Q 2353 2234 1838 2234 
L 1294 2234 
L 1294 2753 
L 1863 2753 
Q 2328 2753 2575 2939 
Q 2822 3125 2822 3475 
Q 2822 3834 2567 4026 
Q 2313 4219 1838 4219 
Q 1578 4219 1281 4162 
Q 984 4106 628 3988 
L 628 4550 
Q 988 4650 1302 4700 
Q 1616 4750 1894 4750 
Q 2613 4750 3031 4423 
Q 3450 4097 3450 3541 
Q 3450 3153 3228 2886 
Q 3006 2619 2597 2516 
z
" transform="scale(0.015625)"/>
       </defs>
       <use xlink:href="#DejaVuSans-16"/>
       <use xlink:href="#DejaVuSans-13" transform="translate(63.625 0)"/>
       <use xlink:href="#DejaVuSans-13" transform="translate(127.25 0)"/>
       <use xlink:href="#DejaVuSans-13" transform="translate(190.875 0)"/>
       <use xlink:href="#DejaVuSans-13" transform="translate(254.5 0)"/>
      </g>
     </g>
    </g>
    <g id="text_22">
     <!-- GDP -->
     <g style="fill: #ff0000" transform="translate(850.210156 218.919062) rotate(-90) scale(0.1 -0.1)">
      <defs>
       <path id="DejaVuSans-2a" d="M 3809 666 
L 3809 1919 
L 2778 1919 
L 2778 2438 
L 4434 2438 
L 4434 434 
Q 4069 175 3628 42 
Q 3188 -91 2688 -91 
Q 1594 -91 976 548 
Q 359 1188 359 2328 
Q 359 3472 976 4111 
Q 1594 4750 2688 4750 
Q 3144 4750 3555 4637 
Q 3966 4525 4313 4306 
L 4313 3634 
Q 3963 3931 3569 4081 
Q 3175 4231 2741 4231 
Q 1884 4231 1454 3753 
Q 1025 3275 1025 2328 
Q 1025 1384 1454 906 
Q 1884 428 2741 428 
Q 3075 428 3337 486 
Q 3600 544 3809 666 
z
" transform="scale(0.015625)"/>
       <path id="DejaVuSans-33" d="M 1259 4147 
L 1259 2394 
L 2053 2394 
Q 2494 2394 2734 2622 
Q 2975 2850 2975 3272 
Q 2975 3691 2734 3919 
Q 2494 4147 2053 4147 
L 1259 4147 
z
M 628 4666 
L 2053 4666 
Q 2838 4666 3239 4311 
Q 3641 3956 3641 3272 
Q 3641 2581 3239 2228 
Q 2838 1875 2053 1875 
L 1259 1875 
L 1259 0 
L 628 0 
L 628 4666 
z
" transform="scale(0.015625)"/>
      </defs>
      <use xlink:href="#DejaVuSans-2a"/>
      <use xlink:href="#DejaVuSans-27" transform="translate(77.484375 0)"/>
      <use xlink:href="#DejaVuSans-33" transform="translate(154.484375 0)"/>
     </g>
    </g>
   </g>
   <g id="line2d_21">
    <path d="M 79.387692 373.652727 
L 85.859057 369.936007 
L 92.330423 368.86969 
L 98.872902 367.089913 
L 105.415381 366.567888 
L 111.815633 364.618729 
L 118.286998 364.633563 
L 124.829477 363.688342 
L 131.371957 361.825978 
L 137.772208 360.252349 
L 144.243574 358.790431 
L 150.786053 357.618944 
L 157.328532 355.91308 
L 163.728784 353.814551 
L 170.200149 349.971255 
L 176.742628 346.859646 
L 183.285108 344.570755 
L 189.756473 341.704318 
L 196.227838 338.790593 
L 202.770318 335.431617 
L 209.312797 331.79768 
L 215.713049 329.445865 
L 222.184414 326.115967 
L 228.726893 323.367688 
L 235.269373 319.205716 
L 241.669624 316.870643 
L 248.14099 315.103202 
L 254.683469 312.539442 
L 261.225948 309.873976 
L 267.6262 307.051995 
L 274.097565 304.599294 
L 280.640044 302.31452 
L 287.182524 302.443486 
L 293.653889 300.034258 
L 300.125254 299.530231 
L 306.667734 303.931879 
L 313.210213 306.615751 
L 319.610465 307.367538 
L 326.08183 306.34359 
L 332.624309 303.280389 
L 339.166789 301.564458 
L 345.56704 298.301208 
L 352.038405 295.857906 
L 358.580885 293.316926 
L 365.123364 292.681572 
L 371.523616 289.562 
L 377.994981 288.197548 
L 384.53746 285.252233 
L 391.07994 281.823037 
L 397.551305 279.729457 
L 404.02267 278.02768 
L 410.56515 276.500703 
L 417.107629 273.05298 
L 423.50788 271.834493 
L 429.979246 268.426413 
L 436.521725 264.821099 
L 443.064204 264.734532 
L 449.464456 259.87908 
L 455.935821 255.554175 
L 462.478301 253.921649 
L 469.02078 251.629171 
L 475.421031 248.355749 
L 481.892397 246.511443 
L 488.434876 246.004192 
L 494.977355 244.629825 
L 501.448721 241.817865 
L 507.920086 239.079046 
L 514.462566 236.10102 
L 521.005045 233.214344 
L 527.405296 230.814258 
L 533.876662 226.970221 
L 540.419141 221.755678 
L 546.96162 217.343812 
L 553.361872 213.523888 
L 559.833237 210.226807 
L 566.375717 208.423446 
L 572.918196 205.490936 
L 579.318447 201.156677 
L 585.789813 196.324491 
L 592.332292 193.054232 
L 598.874771 195.808823 
L 605.346137 222.948417 
L 611.817502 196.517243 
L 618.359982 190.724017 
L 624.902461 181.739789 
L 631.302712 170.459541 
L 637.774078 162.036346 
L 644.316557 149.454267 
L 650.859036 142.843287 
L 657.259288 133.595496 
L 663.730653 126.405304 
L 670.273133 119.832726 
L 676.815612 113.08273 
L 683.215863 108.335658 
L 689.687229 100.089231 
L 696.229708 94.793205 
L 702.772187 90.502828 
L 709.243553 83.859516 
L 715.714918 78.340313 
L 722.257397 73.594633 
L 728.799877 70.310978 
L 735.200128 63.596023 
L 741.671494 54.327752 
L 748.213973 49.415855 
L 754.756452 42.707273 
" clip-path="url(#p7e3b33bf58)" style="fill: none; stroke: #ff0000; stroke-width: 1.5; stroke-linecap: square"/>
   </g>
   <g id="patch_8">
    <path d="M 45.082344 390.2 
L 45.082344 26.16 
" style="fill: none; stroke: #000000; stroke-width: 0.8; stroke-linejoin: miter; stroke-linecap: square"/>
   </g>
   <g id="patch_9">
    <path d="M 799.8 390.2 
L 799.8 26.16 
" style="fill: none; stroke: #000000; stroke-width: 0.8; stroke-linejoin: miter; stroke-linecap: square"/>
   </g>
   <g id="patch_10">
    <path d="M 45.082344 390.2 
L 799.8 390.2 
" style="fill: none; stroke: #000000; stroke-width: 0.8; stroke-linejoin: miter; stroke-linecap: square"/>
   </g>
   <g id="patch_11">
    <path d="M 45.082344 26.16 
L 799.8 26.16 
" style="fill: none; stroke: #000000; stroke-width: 0.8; stroke-linejoin: miter; stroke-linecap: square"/>
   </g>
   <g id="text_23">
    <!-- FRED: Unemployment Rate vs GDP over Time -->
    <g transform="translate(285.442422 20.16) scale(0.12 -0.12)">
     <defs>
      <path id="DejaVuSans-29" d="M 628 4666 
L 3309 4666 
L 3309 4134 
L 1259 4134 
L 1259 2759 
L 3109 2759 
L 3109 2228 
L 1259 2228 
L 1259 0 
L 628 0 
L 628 4666 
z
" transform="scale(0.015625)"/>
      <path id="DejaVuSans-1d" d="M 750 794 
L 1409 794 
L 1409 0 
L 750 0 
L 750 794 
z
M 750 3309 
L 1409 3309 
L 1409 2516 
L 750 2516 
L 750 3309 
z
" transform="scale(0.015625)"/>
      <path id="DejaVuSans-59" d="M 191 3500 
L 800 3500 
L 1894 563 
L 2988 3500 
L 3597 3500 
L 2284 0 
L 1503 0 
L 191 3500 
z
" transform="scale(0.015625)"/>
      <path id="DejaVuSans-56" d="M 2834 3397 
L 2834 2853 
Q 2591 2978 2328 3040 
Q 2066 3103 1784 3103 
Q 1356 3103 1142 2972 
Q 928 2841 928 2578 
Q 928 2378 1081 2264 
Q 1234 2150 1697 2047 
L 1894 2003 
Q 2506 1872 2764 1633 
Q 3022 1394 3022 966 
Q 3022 478 2636 193 
Q 2250 -91 1575 -91 
Q 1294 -91 989 -36 
Q 684 19 347 128 
L 347 722 
Q 666 556 975 473 
Q 1284 391 1588 391 
Q 1994 391 2212 530 
Q 2431 669 2431 922 
Q 2431 1156 2273 1281 
Q 2116 1406 1581 1522 
L 1381 1569 
Q 847 1681 609 1914 
Q 372 2147 372 2553 
Q 372 3047 722 3315 
Q 1072 3584 1716 3584 
Q 2034 3584 2315 3537 
Q 2597 3491 2834 3397 
z
" transform="scale(0.015625)"/>
      <path id="DejaVuSans-55" d="M 2631 2963 
Q 2534 3019 2420 3045 
Q 2306 3072 2169 3072 
Q 1681 3072 1420 2755 
Q 1159 2438 1159 1844 
L 1159 0 
L 581 0 
L 581 3500 
L 1159 3500 
L 1159 2956 
Q 1341 3275 1631 3429 
Q 1922 3584 2338 3584 
Q 2397 3584 2469 3576 
Q 2541 3569 2628 3553 
L 2631 2963 
z
" transform="scale(0.015625)"/>
      <path id="DejaVuSans-4c" d="M 603 3500 
L 1178 3500 
L 1178 0 
L 603 0 
L 603 3500 
z
M 603 4863 
L 1178 4863 
L 1178 4134 
L 603 4134 
L 603 4863 
z
" transform="scale(0.015625)"/>
     </defs>
     <use xlink:href="#DejaVuSans-29"/>
     <use xlink:href="#DejaVuSans-35" transform="translate(57.515625 0)"/>
     <use xlink:href="#DejaVuSans-28" transform="translate(127 0)"/>
     <use xlink:href="#DejaVuSans-27" transform="translate(190.1875 0)"/>
     <use xlink:href="#DejaVuSans-1d" transform="translate(267.1875 0)"/>
     <use xlink:href="#DejaVuSans-3" transform="translate(300.875 0)"/>
     <use xlink:href="#DejaVuSans-38" transform="translate(332.65625 0)"/>
     <use xlink:href="#DejaVuSans-51" transform="translate(405.84375 0)"/>
     <use xlink:href="#DejaVuSans-48" transform="translate(469.21875 0)"/>
     <use xlink:href="#DejaVuSans-50" transform="translate(530.75 0)"/>
     <use xlink:href="#DejaVuSans-53" transform="translate(628.15625 0)"/>
     <use xlink:href="#DejaVuSans-4f" transform="translate(691.640625 0)"/>
     <use xlink:href="#DejaVuSans-52" transform="translate(719.421875 0)"/>
     <use xlink:href="#DejaVuSans-5c" transform="translate(780.609375 0)"/>
     <use xlink:href="#DejaVuSans-50" transform="translate(839.796875 0)"/>
     <use xlink:href="#DejaVuSans-48" transform="translate(937.203125 0)"/>
     <use xlink:href="#DejaVuSans-51" transform="translate(998.734375 0)"/>
     <use xlink:href="#DejaVuSans-57" transform="translate(1062.109375 0)"/>
     <use xlink:href="#DejaVuSans-3" transform="translate(1101.3125 0)"/>
     <use xlink:href="#DejaVuSans-35" transform="translate(1133.09375 0)"/>
     <use xlink:href="#DejaVuSans-44" transform="translate(1200.375 0)"/>
     <use xlink:href="#DejaVuSans-57" transform="translate(1261.65625 0)"/>
     <use xlink:href="#DejaVuSans-48" transform="translate(1300.859375 0)"/>
     <use xlink:href="#DejaVuSans-3" transform="translate(1362.390625 0)"/>
     <use xlink:href="#DejaVuSans-59" transform="translate(1394.171875 0)"/>
     <use xlink:href="#DejaVuSans-56" transform="translate(1453.359375 0)"/>
     <use xlink:href="#DejaVuSans-3" transform="translate(1505.453125 0)"/>
     <use xlink:href="#DejaVuSans-2a" transform="translate(1537.234375 0)"/>
     <use xlink:href="#DejaVuSans-27" transform="translate(1614.71875 0)"/>
     <use xlink:href="#DejaVuSans-33" transform="translate(1691.71875 0)"/>
     <use xlink:href="#DejaVuSans-3" transform="translate(1752.015625 0)"/>
     <use xlink:href="#DejaVuSans-52" transform="translate(1783.796875 0)"/>
     <use xlink:href="#DejaVuSans-59" transform="translate(1844.984375 0)"/>
     <use xlink:href="#DejaVuSans-48" transform="translate(1904.171875 0)"/>
     <use xlink:href="#DejaVuSans-55" transform="translate(1965.703125 0)"/>
     <use xlink:href="#DejaVuSans-3" transform="translate(2006.8125 0)"/>
     <use xlink:href="#DejaVuSans-37" transform="translate(2038.59375 0)"/>
     <use xlink:href="#DejaVuSans-4c" transform="translate(2096.59375 0)"/>
     <use xlink:href="#DejaVuSans-50" transform="translate(2124.375 0)"/>
     <use xlink:href="#DejaVuSans-48" transform="translate(2221.78125 0)"/>
    </g>
   </g>
   <g id="legend_2">
    <g id="patch_12">
     <path d="M 52.082344 49.160781 
L 161.721406 49.160781 
Q 163.721406 49.160781 163.721406 47.160781 
L 163.721406 33.16 
Q 163.721406 31.16 161.721406 31.16 
L 52.082344 31.16 
Q 50.082344 31.16 50.082344 33.16 
L 50.082344 47.160781 
Q 50.082344 49.160781 52.082344 49.160781 
z
" style="fill: #ffffff; opacity: 0.8; stroke: #cccccc; stroke-linejoin: miter"/>
    </g>
    <g id="line2d_22">
     <path d="M 54.082344 39.258437 
L 64.082344 39.258437 
L 74.082344 39.258437 
" style="fill: none; stroke: #ff0000; stroke-width: 1.5; stroke-linecap: square"/>
    </g>
    <g id="text_24">
     <!-- GDP (Billions $) -->
     <g transform="translate(82.082344 42.758437) scale(0.1 -0.1)">
      <defs>
       <path id="DejaVuSans-25" d="M 1259 2228 
L 1259 519 
L 2272 519 
Q 2781 519 3026 730 
Q 3272 941 3272 1375 
Q 3272 1813 3026 2020 
Q 2781 2228 2272 2228 
L 1259 2228 
z
M 1259 4147 
L 1259 2741 
L 2194 2741 
Q 2656 2741 2882 2914 
Q 3109 3088 3109 3444 
Q 3109 3797 2882 3972 
Q 2656 4147 2194 4147 
L 1259 4147 
z
M 628 4666 
L 2241 4666 
Q 2963 4666 3353 4366 
Q 3744 4066 3744 3513 
Q 3744 3084 3544 2831 
Q 3344 2578 2956 2516 
Q 3422 2416 3680 2098 
Q 3938 1781 3938 1306 
Q 3938 681 3513 340 
Q 3088 0 2303 0 
L 628 0 
L 628 4666 
z
" transform="scale(0.015625)"/>
       <path id="DejaVuSans-7" d="M 2163 -941 
L 1850 -941 
L 1847 0 
Q 1519 6 1191 76 
Q 863 147 531 288 
L 531 850 
Q 850 650 1176 548 
Q 1503 447 1850 444 
L 1850 1869 
Q 1159 1981 845 2250 
Q 531 2519 531 2988 
Q 531 3497 872 3790 
Q 1213 4084 1850 4128 
L 1850 4863 
L 2163 4863 
L 2163 4138 
Q 2453 4125 2725 4076 
Q 2997 4028 3256 3944 
L 3256 3397 
Q 2997 3528 2723 3600 
Q 2450 3672 2163 3684 
L 2163 2350 
Q 2872 2241 3206 1959 
Q 3541 1678 3541 1191 
Q 3541 663 3186 358 
Q 2831 53 2163 6 
L 2163 -941 
z
M 1850 2406 
L 1850 3688 
Q 1488 3647 1297 3481 
Q 1106 3316 1106 3041 
Q 1106 2772 1282 2622 
Q 1459 2472 1850 2406 
z
M 2163 1806 
L 2163 453 
Q 2559 506 2761 678 
Q 2963 850 2963 1131 
Q 2963 1406 2770 1568 
Q 2578 1731 2163 1806 
z
" transform="scale(0.015625)"/>
      </defs>
      <use xlink:href="#DejaVuSans-2a"/>
      <use xlink:href="#DejaVuSans-27" transform="translate(77.484375 0)"/>
      <use xlink:href="#DejaVuSans-33" transform="translate(154.484375 0)"/>
      <use xlink:href="#DejaVuSans-3" transform="translate(214.78125 0)"/>
      <use xlink:href="#DejaVuSans-b" transform="translate(246.5625 0)"/>
      <use xlink:href="#DejaVuSans-25" transform="translate(285.578125 0)"/>
      <use xlink:href="#DejaVuSans-4c" transform="translate(354.1875 0)"/>
      <use xlink:href="#DejaVuSans-4f" transform="translate(381.96875 0)"/>
      <use xlink:href="#DejaVuSans-4f" transform="translate(409.75 0)"/>
      <use xlink:href="#DejaVuSans-4c" transform="translate(437.53125 0)"/>
      <use xlink:href="#DejaVuSans-52" transform="translate(465.3125 0)"/>
      <use xlink:href="#DejaVuSans-51" transform="translate(526.5 0)"/>
      <use xlink:href="#DejaVuSans-56" transform="translate(589.875 0)"/>
      <use xlink:href="#DejaVuSans-3" transform="translate(641.96875 0)"/>
      <use xlink:href="#DejaVuSans-7" transform="translate(673.75 0)"/>
      <use xlink:href="#DejaVuSans-c" transform="translate(737.375 0)"/>
     </g>
    </g>
   </g>
  </g>
 </g>
 <defs>
  <clipPath id="p7e3b33bf58">
   <rect x="45.082344" y="26.16" width="754.717656" height="364.04"/>
  </clipPath>
 </defs>
</svg>
